<svg width="12" height="10" viewBox="0 0 12 10" fill="none" xmlns="http://www.w3.org/2000/svg">
<path fill-rule="evenodd" clip-rule="evenodd" d="M1.28445 9.6469C0.898058 9.2571 0.898058 8.62871 1.28445 8.23891L4.49501 5L1.28445 1.76109C0.898058 1.37129 0.898058 0.742905 1.28445 0.353103L1.33369 0.303428C1.72491 -0.0912499 2.36288 -0.0912496 2.7541 0.303428L6 3.57798L9.2459 0.303428C9.63712 -0.0912496 10.2751 -0.0912499 10.6663 0.303428L10.7156 0.353103C11.1019 0.742905 11.1019 1.37129 10.7156 1.76109L7.50499 5L10.7156 8.23891C11.1019 8.62871 11.1019 9.2571 10.7156 9.6469L10.6663 9.69657C10.2751 10.0913 9.63712 10.0913 9.2459 9.69657L6 6.42202L2.7541 9.69657C2.36288 10.0913 1.72491 10.0913 1.33369 9.69657L1.28445 9.6469Z" fill="#FF3E79"/>
</svg>
