<svg width="8" height="11" viewBox="0 0 8 11" fill="none" xmlns="http://www.w3.org/2000/svg">
<path fill-rule="evenodd" clip-rule="evenodd" d="M6.5 0.500076L4 3.00008L1.5 0.500076C1.22386 0.223933 0.776142 0.223933 0.5 0.500076C0.223858 0.776218 0.223857 1.22393 0.5 1.50008L3.29289 4.29297C3.68342 4.68349 4.31658 4.68349 4.70711 4.29297L7.5 1.50008C7.77614 1.22393 7.77614 0.776218 7.5 0.500076C7.22386 0.223933 6.77614 0.223933 6.5 0.500076ZM6.5 6.50008L4 9.00008L1.5 6.50008C1.22386 6.22393 0.776142 6.22393 0.5 6.50008C0.223858 6.77622 0.223857 7.22393 0.5 7.50008L3.29289 10.293C3.68342 10.6835 4.31658 10.6835 4.70711 10.293L7.5 7.50008C7.77614 7.22393 7.77614 6.77622 7.5 6.50008C7.22386 6.22393 6.77614 6.22393 6.5 6.50008Z" fill="#41F6D7"/>
</svg>
